<svg width="100" height="100" viewBox="0 0 100 100" fill="none" xmlns="http://www.w3.org/2000/svg">
  <!-- Fondo texturizado -->
  <rect width="100" height="100" rx="8" fill="#1E1710"/>
  
  <!-- Decoración de marco -->
  <rect x="5" y="5" width="90" height="90" rx="5" stroke="#BE8730" stroke-opacity="0.5" stroke-width="1.5"/>
  <rect x="8" y="8" width="84" height="84" rx="3" stroke="#7C3030" stroke-opacity="0.3" stroke-width="1"/>
  
  <!-- Burbuja de diálogo estilizada -->
  <path d="M75 35C75 26.7157 68.2843 20 60 20H40C31.7157 20 25 26.7157 25 35V50C25 58.2843 31.7157 65 40 65H45L50 75L55 65H60C68.2843 65 75 58.2843 75 50V35Z" fill="#481D1D" stroke="#BE8730" stroke-width="2"/>
  
  <!-- Símbolo estilizado - letra D rotada -->
  <g transform="translate(50 42.5) rotate(-5)">
    <path d="M-15 -5 C -15 -12 -10 -17.5 -3 -17.5 L 3 -17.5 C 10 -17.5 15 -12 15 -5 L 15 5 C 15 12 10 17.5 3 17.5 L -3 17.5 C -10 17.5 -15 12 -15 5 Z" 
          fill="none" stroke="#D6AD7B" stroke-width="2.5"/>
    <path d="M-5 -10 L -5 10 L 0 10 C 6 10 10 5 10 0 C 10 -5 6 -10 0 -10 Z" 
          fill="#BF8C4C" fill-opacity="0.6"/>
  </g>
  
  <!-- Grieta decorativa -->
  <path d="M65 15L60 35L68 45L65 55L72 70L65 85" stroke="#7C3030" stroke-width="1" stroke-opacity="0.7"/>
  
  <!-- Destellos -->
  <circle cx="32" cy="38" r="2" fill="#D6AD7B" fill-opacity="0.8"/>
  <circle cx="68" cy="45" r="1.5" fill="#D6AD7B" fill-opacity="0.6"/>
</svg> 